<?xml version="1.0" encoding="utf-8"?>
<!-- Generator: Adobe Illustrator 19.0.0, SVG Export Plug-In . SVG Version: 6.00 Build 0)  -->
<svg version="1.1" id="Capa_1" xmlns="http://www.w3.org/2000/svg" xmlns:xlink="http://www.w3.org/1999/xlink" x="0px" y="0px"
	 viewBox="0 0 306 81" style="enable-background:new 0 0 306 81;" xml:space="preserve">
<style type="text/css">
	.st0{fill:#90B540;}
	.st1{fill:#296AAC;}
	.st2{clip-path:url(#XMLID_145_);fill:url(#XMLID_146_);}
</style>
<path id="XMLID_34_" class="st0" d="M139.8,41.3c0.6,1.9,2.3,3.1,4.3,3.1c1.5,0,2.9-0.6,3.7-1.4h4.4c-1,2.9-4.4,5.3-7.9,5.3
	c-4.8,0-8.6-3.8-8.6-8.6c0-4.9,3.8-8.9,8.7-8.9c4.7,0,8.4,4,8.4,8.6c0,0.6-0.1,1.2-0.2,1.9H139.8z M148.8,37.8
	c-0.7-2-2.5-3.1-4.5-3.1c-2,0-4,1.2-4.6,3.1H148.8z"/>
<path id="XMLID_33_" class="st0" d="M170.8,42.5c-1.1,3.5-4.5,5.9-8.1,5.9c-2.2,0-4.5-0.9-6.1-2.5c-1.8-1.7-2.7-4-2.7-6.4
	c0-4.8,4-8.6,8.7-8.6c3.6,0,7.2,2.4,8.2,6h-4.4c-0.9-1.5-2.1-2.1-3.8-2.1c-2.8,0-4.7,2.1-4.7,4.8c0,2.9,2.1,4.9,4.9,4.9
	c1.4,0,2.8-0.8,3.6-2H170.8z"/>
<path id="XMLID_9_" class="st0" d="M172.8,25.9h3.9v6.7c0.9-1.2,2.8-1.8,4.2-1.8c1.8,0,3.7,0.9,4.8,2.2c1.5,1.7,1.6,3.7,1.6,5.9v8.9
	h-3.9v-8c0-2.5-0.3-5.1-3.3-5.1c-1.1,0-2.1,0.5-2.7,1.4c-0.7,1-0.6,2.5-0.6,3.7v8h-3.9V25.9z"/>
<path id="XMLID_31_" class="st0" d="M189.9,31.4h3.6v1.5c1-1.4,2.8-2,4.5-2c1.7,0,3.5,0.8,4.7,2c0.1,0.1,0.3,0.3,0.4,0.5
	c1.3,1.8,1.3,3.8,1.3,5.9v8.5h-3.9v-7.7c0-1.3,0-2.9-0.7-4c-0.6-0.9-1.6-1.4-2.6-1.4c-1.1,0-2.2,0.6-2.8,1.5
	c-0.7,1.1-0.7,2.9-0.7,4.2v7.4h-3.9V31.4z"/>
<path id="XMLID_28_" class="st0" d="M223.6,39.6c0,4.9-3.9,8.7-8.8,8.7c-4.7,0-8.7-3.9-8.7-8.7c0-4.9,3.9-8.8,8.9-8.8
	C219.9,30.9,223.6,34.9,223.6,39.6 M211.5,36.2c-0.9,0.9-1.4,2.1-1.4,3.4c0,2.6,2,4.9,4.7,4.9c2.8,0,4.8-2.1,4.8-4.9
	c0-2.7-2.1-4.9-4.8-4.9C213.7,34.7,212.3,35.3,211.5,36.2"/>
<rect id="XMLID_27_" x="225.1" y="25.9" class="st0" width="3.9" height="21.9"/>
<path id="XMLID_24_" class="st0" d="M248.3,39.6c0,4.9-3.9,8.7-8.8,8.7c-4.7,0-8.7-3.9-8.7-8.7c0-4.9,3.9-8.8,8.9-8.8
	C244.5,30.9,248.3,34.9,248.3,39.6 M236.1,36.2c-0.9,0.9-1.4,2.1-1.4,3.4c0,2.6,2,4.9,4.7,4.9c2.8,0,4.8-2.1,4.8-4.9
	c0-2.7-2.1-4.9-4.8-4.9C238.3,34.7,237,35.3,236.1,36.2"/>
<path id="XMLID_21_" class="st0" d="M266.3,31.4v13.9c0,2.5-0.5,4.5-2.3,6.3c-1.7,1.7-4.1,2.8-6.5,2.8c-3.5,0-6.9-2.1-8.1-5.4h4.5
	c0.9,0.9,2.4,1.6,3.7,1.6c1.3,0,2.7-0.5,3.7-1.4c1.2-1.1,1.3-2.2,1.6-3.7c-1.4,1.7-3,2.8-5.3,2.8c-2.1,0-4.4-1.1-5.9-2.6
	c-1.6-1.7-2.5-4.1-2.5-6.4c0-2.2,0.8-4.2,2.2-5.7c1.5-1.7,3.8-2.8,6.2-2.8c2.1,0,4.1,0.9,5.2,2.8v-2.3H266.3z M257.7,34.7
	c-1.3,0-2.5,0.6-3.3,1.5c-0.9,0.9-1.3,2-1.3,3.3c0,2.8,2.1,5,4.9,5c2.6,0,4.6-2.3,4.6-4.8C262.6,36.8,260.4,34.7,257.7,34.7"/>
<polygon id="XMLID_20_" class="st0" points="273.2,46.3 267.2,31.4 271.7,31.4 275.4,41.9 279.4,31.4 283.8,31.4 274.4,53.3 
	270.2,53.3 "/>
<polygon id="XMLID_19_" class="st1" points="41.1,36.8 25.5,36.8 25.5,47.8 19.8,47.8 19.8,20.6 25.5,20.6 25.5,31.5 41.1,31.5 
	41.1,20.6 46.9,20.6 46.9,47.8 41.1,47.8 "/>
<polygon id="XMLID_18_" class="st1" points="110.4,36.8 94.8,36.8 94.8,47.8 89,47.8 89,20.6 94.8,20.6 94.8,31.5 110.4,31.5 
	110.4,20.6 116.2,20.6 116.2,47.8 110.4,47.8 "/>
<path id="XMLID_2_" class="st1" d="M52.6,25.8h30.1v-5.2H52.6V25.8z M64.7,47.8h5.9V28.5h-5.9V47.8z"/>
<polygon id="XMLID_8_" class="st0" points="128.2,34.9 126.3,34.9 126.3,31.4 128.2,31.4 128.2,25.9 132.1,25.9 132.1,31.4 
	134.5,31.4 134.5,34.9 132.1,34.9 132.1,47.8 128.2,47.8 "/>
<g id="XMLID_5_">
	<defs>
		<path id="XMLID_6_" d="M76,37.6c2.2,2.2,3.5,5.2,3.5,8.4c0,3.2-1.2,6.2-3.5,8.4c-4.6,4.6-12.2,4.6-16.8,0
			c-2.2-2.2-3.5-5.2-3.5-8.4c0-3.2,1.2-6.2,3.5-8.4l-3.4-3.4C52.7,37.4,51,41.6,51,46c0,4.5,1.7,8.6,4.9,11.8
			c3.2,3.1,7.3,4.9,11.8,4.9c4.5,0,8.6-1.7,11.8-4.9c3.1-3.1,4.9-7.3,4.9-11.8c0-4.5-1.7-8.6-4.9-11.8L76,37.6z"/>
	</defs>
	<clipPath id="XMLID_145_">
		<use xlink:href="#XMLID_6_"  style="overflow:visible;"/>
	</clipPath>
	
		<radialGradient id="XMLID_146_" cx="-769.0521" cy="3785.2046" r="1" gradientTransform="matrix(0 -26.7818 -26.7818 0 101441.9922 -20540.0371)" gradientUnits="userSpaceOnUse">
		<stop  offset="0" style="stop-color:#8EB335"/>
		<stop  offset="0.3409" style="stop-color:#8EB335"/>
		<stop  offset="0.9982" style="stop-color:#178BB8"/>
		<stop  offset="1" style="stop-color:#178BB8"/>
	</radialGradient>
	<rect id="XMLID_7_" x="51" y="34.2" class="st2" width="33.3" height="28.5"/>
</g>
</svg>
